<svg id="Layer_2" data-name="Layer 2" xmlns="http://www.w3.org/2000/svg" viewBox="0 0 375.33 383.07"><defs><style>.cls-1{fill:#a62d59;}.cls-2{fill:#6c3e8c;}</style></defs><title>Evan Fave Icon</title><path d="M141.46,92.66c-4-.52-7.72.79-11.43,2.16-4.88,1.81-10,2.53-15.12,3.48q-16.72,3.12-33.47,6c-21.51,3.74-43.05,7.32-64.57,11.05-1.9.33-1.09,3.22.8,2.89,20.88-3.63,41.79-7.1,62.67-10.72q15.77-2.74,31.51-5.62c5.11-.94,10.49-1.54,15.49-2.92,4.78-1.32,9-4,14.12-3.33,1.91.25,1.89-2.75,0-3Z" transform="translate(-15.52 -6.02)"/><path d="M20.77,126.52a31.94,31.94,0,0,0,14.61,10c1.83.62,2.62-2.28.8-2.89a29.12,29.12,0,0,1-13.28-9.22c-1.23-1.49-3.34.64-2.12,2.12Z" transform="translate(-15.52 -6.02)"/><path d="M145,94.85c6.17,6.75,15,9.2,23.56,11.29,1.88.46,2.68-2.44.8-2.89-8.1-2-16.41-4.15-22.24-10.52-1.31-1.43-3.42.7-2.12,2.12Z" transform="translate(-15.52 -6.02)"/><path d="M21.34,294.33a284.23,284.23,0,0,0,23.17,19.41c1.54,1.16,3-1.44,1.51-2.59a277.05,277.05,0,0,1-22.56-18.94c-1.41-1.32-3.54.8-2.12,2.12Z" transform="translate(-15.52 -6.02)"/><path d="M15.85,120.81c-.42,56.6-.34,113.25,3.84,169.72.14,1.91,3.14,1.93,3,0-4.19-56.48-4.26-113.12-3.84-169.72a1.5,1.5,0,0,0-3,0Z" transform="translate(-15.52 -6.02)"/><path d="M39,137.58c-.78,38.57.2,77.15,1.63,115.7.71,19,.81,38.26,2.28,57.26.51,6.58,4.42,6.93,10.29,7.32a265.33,265.33,0,0,0,27.33.11c19.5-.72,39-1.74,58.48-2.62l28.83-1.3,13.92-.63c3.32-.15,7.07.08,10.21-1.21,5.33-2.19,5.65-7.72,5.08-12.71-1-8.52-2.51-17-4.28-25.38q-1.36-6.43-3-12.8c-.9-3.52-1.39-8.23-3.25-11.38-1.11-1.87-2.61-2.36-4.71-2.72-4.8-.82-9.74-1.18-14.59-1.59a311.48,311.48,0,0,0-31.28-1.09q-8.32.13-16.62.7c-2.43.17-5.43,1-7.8.64-3.57-.52-3.59-2.67-4.06-6.06-.35-2.57-3.15-12.65-.94-14.44,1.38-1.12,6.39-.65,8.33-.84l7.76-.76,33-3.22c.73-.07,1.61-.63,1.5-1.5q-1.18-9.16-2.35-18.31c-.4-3.12-.57-6.93-3.39-8.92-3.54-2.49-9.48-.73-13.41-.41l-21.64,1.75-3.93.32c-1,.08-5,1-5.9.48-2.37-1.43-1.81-7-2-9.25l-1.54-19.88c-.35-4.58-.33-4.68,4.17-5.71q4.71-1.07,9.44-2,9.47-1.9,19-3.3c13.5-2,27-2.4,40.54-3.63,2.53-.23,4.89-1,5.6-3.72.47-1.81-.19-4.05-.51-5.81-.69-3.9-1.44-7.79-2.16-11.68-1-5.66-1.33-12.64-3.37-18-1.21-3.19-3.54-2.64-6.47-2.13-13.06,2.29-26.09,4.68-39.14,7L40,132c-1.9.34-1.09,3.23.8,2.89l74.36-13.34,37.18-6.67c5.51-1,12-3.25,17.61-3.16,3.66.06,2.95.74,3.45,3.44l.9,4.87,1.8,9.73,1.8,9.73a21.15,21.15,0,0,1,.72,3.89c-.25,5.25-.78,3-3.12,3.82-2.54.85-6.95.3-9.64.46q-4.82.3-9.63.72-17.51,1.53-34.83,4.73c-5.69,1-11.39,2.17-17,3.55-3,.74-4.59,1.13-4.78,4.38-.33,5.5.9,11.55,1.32,17l.73,9.47c.17,2.16-.18,5,.62,7,1.54,3.9,6.89,2.18,10,1.92L132,194.9l10.82-.88c4.11-.33,7.51-.62,8.53,4.11,1.46,6.8,1.82,14,2.71,20.93l1.5-1.5-27.16,2.65-12.61,1.23c-3.25.32-8-.13-11,1.35-4.39,2.15-1.19,10.77-.72,14.31.57,4.27,0,11,5.45,11.78,3.69.56,8-.54,11.72-.77q6.84-.43,13.69-.56,13.7-.26,27.38.69,6.83.47,13.64,1.25c2.58.29,6.33.54,8.15,2.65,1.25,1.44,1.54,5.43,2,7.23q3.38,12.7,5.68,25.66,1.13,6.37,2,12.79c.71,5.4,1.16,10.78-5.41,12.15-4,.83-8.51.52-12.61.71l-14.91.67-54.68,2.47c-9.21.42-18.41.89-27.62,1.2-8.85.3-18.55,1.14-27.33-.32-2.73-.46-5.09-1.11-5.34-4.18-.18-2.26-.18-4.54-.28-6.8l-.55-13.6q-.57-13.94-1.11-27.89c-1.6-41.54-2.8-83.1-2-124.67,0-1.93-3-1.93-3,0Z" transform="translate(-15.52 -6.02)"/><path d="M103.3,187.17a163.06,163.06,0,0,1,21.88-4.72c2.08-.29,4.82-1.07,6.9-.77,2.56.37,4.9,1.79,7.1,3l9.22,5.23a1.5,1.5,0,0,0,1.51-2.59c-7-3.94-13.16-9.29-21.44-8.34a162,162,0,0,0-26,5.26,1.5,1.5,0,0,0,.8,2.89Z" transform="translate(-15.52 -6.02)"/><path d="M108.09,242.73q20-3.11,40.13-5.42c6.62-.75,13.23-2.26,19.41.93,5.53,2.86,10.84,6.29,16.22,9.43a1.5,1.5,0,0,0,1.51-2.59c-5.79-3.38-11.52-7.24-17.58-10.12-5.7-2.71-11.58-1.55-17.63-.87q-21.49,2.4-42.86,5.75c-1.9.3-1.09,3.19.8,2.89Z" transform="translate(-15.52 -6.02)"/><path d="M110.17,188.79l11.2,5.09c1.74.79,3.27-1.79,1.51-2.59l-11.2-5.09c-1.74-.79-3.27,1.79-1.51,2.59Z" transform="translate(-15.52 -6.02)"/><path d="M119.91,185.71l16.38,8.74c1.7.91,3.22-1.68,1.51-2.59l-16.38-8.74c-1.7-.91-3.22,1.68-1.51,2.59Z" transform="translate(-15.52 -6.02)"/><path d="M126.67,243.11l11.58,5.79c1.72.86,3.24-1.73,1.51-2.59l-11.58-5.79c-1.72-.86-3.24,1.73-1.51,2.59Z" transform="translate(-15.52 -6.02)"/><path d="M142.58,242.65a43.09,43.09,0,0,0,12,5.36,1.5,1.5,0,0,0,.8-2.89,40.31,40.31,0,0,1-11.26-5.05c-1.63-1.05-3.13,1.55-1.51,2.59Z" transform="translate(-15.52 -6.02)"/><path d="M153.68,238.3a107.09,107.09,0,0,0,13.55,8.62c1.7.91,3.22-1.68,1.51-2.59a107.09,107.09,0,0,1-13.55-8.62c-1.55-1.16-3,1.45-1.51,2.59Z" transform="translate(-15.52 -6.02)"/><path d="M197.05,299.49c-1.07-8.2-2.39-16.37-4.09-24.47-1.62-7.77-3-16.27-5.93-23.67-2.22-5.65-9.75-4.75-14.94-5.27q-13.14-1.33-26.37-1.54t-26.4.7c-2,.14-3.9.3-5.85.46-3.65.29-5.17.06-5.77-4.08-.56-3.91-1-7.83-1.57-11.74-.43-3.2-.76-4.39,2.9-4.77,1.94-.2,3.88-.38,5.82-.57l13.58-1.33,27.16-2.65c.73-.07,1.61-.63,1.5-1.5q-1.18-9.16-2.35-18.31c-.4-3.12-.57-6.93-3.39-8.92-3.54-2.49-9.48-.73-13.41-.41l-21.64,1.75-3.93.32c-1,.08-5,1-5.9.48-2.37-1.43-1.81-7-2-9.25l-1.54-19.88c-.35-4.58-.33-4.68,4.17-5.71q4.71-1.07,9.44-2,9.47-1.9,19-3.3c13.5-2,27-2.4,40.54-3.63,2.53-.23,4.89-1,5.6-3.72.47-1.81-.19-4.05-.51-5.81-.69-3.9-1.44-7.79-2.16-11.68-1-5.66-1.33-12.64-3.37-18-1.21-3.19-3.54-2.64-6.47-2.13-13.06,2.29-26.09,4.68-39.14,7L40,132a1.51,1.51,0,0,0-1.1,1.45c.45,22.31-.29,44.65.15,67,.49,25.27,1.44,50.53,2.45,75.79q.38,9.39.76,18.79c.22,5.52-.17,11.49.74,16.94.5,3,1.68,4.62,4.63,5.4,5.27,1.4,11.84.87,17.25.91,25,.18,50.13-1.82,75.1-3l41.75-1.89c4.22-.19,9.73.25,13-3,2.88-2.84,2.67-7.23,2.26-10.92-.21-1.9-3.22-1.92-3,0s.56,4.23,0,6.17c-1.11,3.9-4.87,4.32-8.31,4.57-5.95.43-11.94.54-17.89.81l-33.8,1.53c-22,1-44.14,2.59-66.21,2.68-5.21,0-10.41-.1-15.61-.47-1.83-.13-3-.06-4.51-1.24-1.88-1.45-1.7-1.62-1.85-4-.19-2.91-.24-5.83-.35-8.74q-.68-16.79-1.35-33.59c-.89-22.6-1.69-45.2-2.12-67.82-.42-22,.31-44-.13-66l-1.1,1.45,74.36-13.34,37.18-6.67c5.51-1,12-3.25,17.61-3.16,3.66.06,2.95.74,3.45,3.44l.9,4.87,1.8,9.73,1.8,9.73a21.15,21.15,0,0,1,.72,3.89c-.25,5.25-.78,3-3.12,3.82-2.54.85-6.95.3-9.64.46q-4.82.3-9.63.72-17.51,1.53-34.83,4.73c-5.69,1-11.39,2.17-17,3.55-3,.74-4.59,1.13-4.78,4.38-.33,5.5.9,11.55,1.32,17l.73,9.47c.17,2.16-.18,5,.62,7,1.54,3.9,6.89,2.18,10,1.92L132,194.9l10.82-.88c4.11-.33,7.51-.62,8.53,4.11,1.46,6.8,1.82,14,2.71,20.93l1.5-1.5-29.1,2.84-13.58,1.33c-2.43.24-6.66-.18-8.76,1.45-1.91,1.49-1.4,3.63-1.15,5.8.5,4.22,1.13,8.43,1.69,12.65,1,7.37,3.76,7.48,10.72,6.91a311.36,311.36,0,0,1,56.67.54c2.47.25,5.39.2,7.78.89,5,1.44,4.69,3.52,5.8,7.6s2.22,8.48,3.19,12.75q3.29,14.45,5.18,29.17C194.3,301.38,197.3,301.41,197.05,299.49Z" transform="translate(-15.52 -6.02)"/><path d="M103.3,187.17a163.06,163.06,0,0,1,21.88-4.72c2.08-.29,4.82-1.07,6.9-.77,2.56.37,4.9,1.79,7.1,3l9.22,5.23a1.5,1.5,0,0,0,1.51-2.59c-7-3.94-13.16-9.29-21.44-8.34a162,162,0,0,0-26,5.26,1.5,1.5,0,0,0,.8,2.89Z" transform="translate(-15.52 -6.02)"/><path d="M108.09,242.73q20-3.11,40.13-5.42c6.62-.75,13.23-2.26,19.41.93,5.53,2.86,10.84,6.29,16.22,9.43a1.5,1.5,0,0,0,1.51-2.59c-5.79-3.38-11.52-7.24-17.58-10.12-5.7-2.71-11.58-1.55-17.63-.87q-21.49,2.4-42.86,5.75c-1.9.3-1.09,3.19.8,2.89Z" transform="translate(-15.52 -6.02)"/><path d="M110.17,188.79l11.2,5.09c1.74.79,3.27-1.79,1.51-2.59l-11.2-5.09c-1.74-.79-3.27,1.79-1.51,2.59Z" transform="translate(-15.52 -6.02)"/><path d="M119.91,185.71l16.38,8.74c1.7.91,3.22-1.68,1.51-2.59l-16.38-8.74c-1.7-.91-3.22,1.68-1.51,2.59Z" transform="translate(-15.52 -6.02)"/><path d="M126.67,243.11l11.58,5.79c1.72.86,3.24-1.73,1.51-2.59l-11.58-5.79c-1.72-.86-3.24,1.73-1.51,2.59Z" transform="translate(-15.52 -6.02)"/><path d="M142.58,242.65a43.09,43.09,0,0,0,12,5.36,1.5,1.5,0,0,0,.8-2.89,40.31,40.31,0,0,1-11.26-5.05c-1.63-1.05-3.13,1.55-1.51,2.59Z" transform="translate(-15.52 -6.02)"/><path d="M153.68,238.3a107.09,107.09,0,0,0,13.55,8.62c1.7.91,3.22-1.68,1.51-2.59a107.09,107.09,0,0,1-13.55-8.62c-1.55-1.16-3,1.45-1.51,2.59Z" transform="translate(-15.52 -6.02)"/><path d="M28.6,113.29C30.73,117,34.42,119,38,121a165.32,165.32,0,0,0,15.74,7.78c1.75.76,3.28-1.82,1.51-2.59-4.3-1.86-8.53-3.87-12.67-6.08s-9.1-4.26-11.45-8.34a1.5,1.5,0,0,0-2.59,1.51Z" transform="translate(-15.52 -6.02)"/><path d="M53.65,117A153.37,153.37,0,0,0,87,130.69a1.5,1.5,0,0,0,.8-2.89,150,150,0,0,1-32.65-13.42c-1.69-.94-3.2,1.65-1.51,2.59Z" transform="translate(-15.52 -6.02)"/><path d="M82.41,107.83a60,60,0,0,0,23.39,11.43c1.88.45,2.68-2.44.8-2.89A56.59,56.59,0,0,1,84.53,105.7c-1.5-1.18-3.64.93-2.12,2.12Z" transform="translate(-15.52 -6.02)"/><path d="M111.25,106.52a77,77,0,0,0,19.15,6c1.89.33,2.7-2.56.8-2.89a74,74,0,0,1-18.43-5.72c-1.74-.8-3.27,1.78-1.51,2.59Z" transform="translate(-15.52 -6.02)"/><path d="M130.53,99.32a138.38,138.38,0,0,0,19.3,10.61c1.75.79,3.27-1.8,1.51-2.59A138.38,138.38,0,0,1,132,96.73c-1.62-1.06-3.12,1.53-1.51,2.59Z" transform="translate(-15.52 -6.02)"/><path d="M209.92,98.59,194,96.54c-1.91-.25-1.89,2.76,0,3l15.91,2.06c1.91.25,1.89-2.76,0-3Z" transform="translate(-15.52 -6.02)"/><path d="M206.33,87.19,214,93.09c1.53,1.18,3-1.43,1.51-2.59l-7.64-5.89c-1.53-1.18-3,1.43-1.51,2.59Z" transform="translate(-15.52 -6.02)"/><path d="M209.58,102.36c-.37,31.31,6.89,61.83,13.76,92.17,7.13,31.45,12.14,63.17,16.71,95.08.27,1.9,3.16,1.09,2.89-.8-4.47-31.27-9.32-62.4-16.28-93.22s-14.45-61.54-14.08-93.23a1.5,1.5,0,0,0-3,0Z" transform="translate(-15.52 -6.02)"/><path d="M215.32,100.51a79.49,79.49,0,0,1,83-11.41,135.81,135.81,0,0,1,19.92,11.33c6.65,4.46,13.32,9.31,18.12,15.82,5,6.78,7.73,15.48,5,23.72-2.35,7-7.8,12.5-13,17.58s-10.11,10.43-15,15.9c-5.55,6.27-11.49,12.31-19.5,15.3a1.52,1.52,0,0,0-.66,2.51c23.25,24.95,53.7,41.21,78.84,64,3.17,2.87,6.26,5.84,9.21,8.94q1.94,2,3.81,4.14a7.21,7.21,0,0,1,2.11,3.9c.66,2.62-.27,3.31-2.56,4.6-3.86,2.19-9,2.89-13.24,4.1-4.76,1.35-9.67,3.28-14.54,4.11-5.61,1-9.27-2.72-13.53-5.69q-6.16-4.29-12.2-8.72c-7.7-5.67-15.21-11.61-22.35-18a226.74,226.74,0,0,1-21.53-22.23c-5.92-6.94-12-13.73-19.9-18.41a1.52,1.52,0,0,0-2.2,1.69l9.15,58c.77,4.85,2,9.84,2.33,14.74a6.78,6.78,0,0,1-.17,4.53q.5,3.35-2.88,3.51a40.53,40.53,0,0,1-6.44,1.67,43.91,43.91,0,0,1-27.91-4.47c-1.71-.89-3.23,1.7-1.51,2.59a47.17,47.17,0,0,0,28.17,5.08c3.86-.52,8.89-1.28,12.14-3.6,2.88-2.07,2.29-5,1.8-8.15Q274,250.22,268,212.89l-2.2,1.69c8.66,5.1,14.9,12.84,21.36,20.36a212.55,212.55,0,0,0,22.11,22.12c7.42,6.44,15.22,12.44,23.17,18.2q6.07,4.4,12.25,8.65c3.17,2.18,6.2,4.79,10.26,4.5,4.81-.34,9.85-2.54,14.48-3.86,5-1.42,10.38-2.44,15.18-4.48,5.62-2.38,8.4-6.95,4.17-12.09-11.81-14.36-27.13-25.78-42-36.71-17.89-13.13-36.23-25.84-51.43-42.15l-.66,2.51c14.46-5.39,23-19.47,33.6-29.85s21.17-22.2,15.42-38.2c-5.58-15.51-22.3-25.62-36-33.15-14.58-8-30.6-12.34-47.28-11.13a82.82,82.82,0,0,0-47.22,19.07c-1.48,1.24.65,3.35,2.12,2.12Z" transform="translate(-15.52 -6.02)"/><path d="M269.17,226.48Q286.89,248,306.3,268c5.32,5.47,10.65,11.73,17.83,14.79s15.2,2.71,22.82,2.31c1.92-.1,1.93-3.1,0-3-8.21.43-16.9.85-24.28-3.39-7-4-12.67-11.16-18.17-16.92q-17.3-18.11-33.19-37.48c-1.23-1.49-3.34.64-2.12,2.12Z" transform="translate(-15.52 -6.02)"/><path d="M249,116.84q2.91,22.09,7.61,43.86c.41,1.89,3.3,1.09,2.89-.8q-4.63-21.37-7.5-43.06c-.25-1.89-3.25-1.91-3,0Z" transform="translate(-15.52 -6.02)"/><path d="M251.85,118.23c3.78-3.2,7.88-6.72,12.92-7.63s10.5.94,15,3.31a38.53,38.53,0,0,1,16.67,17.2,30.72,30.72,0,0,1,3,11.77c.11,2.35.22,5.46-1.08,7.51-1.61,2.55-5.21,2.87-7.84,3.18-9.74,1.15-19.53,2-29.29,2.94-1.9.19-1.92,3.19,0,3l22.45-2.25c4.55-.46,10.43-.23,14.49-2.69,7.35-4.45,4.19-17.36,1.46-23.64a41.31,41.31,0,0,0-21-20.88c-4.54-2-9.66-3.32-14.63-2.33-5.56,1.11-10,4.84-14.24,8.4-1.48,1.25.65,3.36,2.12,2.12Z" transform="translate(-15.52 -6.02)"/><path d="M256.19,117.41a20.09,20.09,0,0,1,22.64,14.4c1.64,6,2,12.09-3,16.59a25.29,25.29,0,0,1-15.21,6.43c-1.91.15-1.93,3.16,0,3A28.14,28.14,0,0,0,278.52,150c5-5,5-10.59,3.61-17.22a23.16,23.16,0,0,0-26.73-18.25c-1.9.32-1.09,3.21.8,2.89Z" transform="translate(-15.52 -6.02)"/><path d="M276,151.67A112.09,112.09,0,0,1,293,153c1.89.3,2.7-2.6.8-2.89A117.35,117.35,0,0,0,276,148.67a1.5,1.5,0,0,0,0,3Z" transform="translate(-15.52 -6.02)"/><path d="M281.43,135.2a56.05,56.05,0,0,0,10.53.5c1.92-.1,1.93-3.1,0-3a52,52,0,0,1-9.74-.39c-1.89-.26-2.7,2.63-.8,2.89Z" transform="translate(-15.52 -6.02)"/><path d="M187.39,99.07c4.16,37.44,19.17,72.59,25,109.75q2.36,15,3.28,30.22c.57,9.3.29,18.65,1,27.94.45,6.26.83,14.46,6.38,18.47s14.16,6.63,20.87,4.68c1.85-.54,1.06-3.44-.8-2.89-4.9,1.43-9.58-.19-14.1-2.07-5.85-2.44-7.73-6.25-8.71-12.34-1.33-8.28-.88-16.77-1.17-25.12a330.56,330.56,0,0,0-5.44-49.17c-6.27-33.5-19.48-65.48-23.25-99.47-.21-1.9-3.21-1.92-3,0Z" transform="translate(-15.52 -6.02)"/><path d="M193.09,95.9c18.26-25,51.14-30.86,80.11-26.12,27.89,4.56,56.22,19.33,65.55,47.76.6,1.83,3.5,1,2.89-.8C331.78,86.67,301.81,71,272.2,66.6c-29.95-4.47-63,2.09-81.7,27.78-1.14,1.56,1.46,3.06,2.59,1.51Z" transform="translate(-15.52 -6.02)"/><path d="M220.09,77.24a20.51,20.51,0,0,0,16.81,4.5c1.9-.32,1.09-3.21-.8-2.89a17.23,17.23,0,0,1-13.89-3.73c-1.48-1.22-3.61.89-2.12,2.12Z" transform="translate(-15.52 -6.02)"/><path d="M245.63,68.61a159.59,159.59,0,0,1,14,15c1.22,1.5,3.33-.64,2.12-2.12a159.59,159.59,0,0,0-14-15c-1.4-1.33-3.53.79-2.12,2.12Z" transform="translate(-15.52 -6.02)"/><path d="M283.23,73,299.48,86.2c1.49,1.21,3.62-.9,2.12-2.12L285.35,70.86c-1.49-1.21-3.62.9-2.12,2.12Z" transform="translate(-15.52 -6.02)"/><path d="M284.73,244.28a45.27,45.27,0,0,1,8.76.5c1.89.3,2.7-2.59.8-2.89a49.33,49.33,0,0,0-9.56-.61c-1.92.07-1.93,3.07,0,3Z" transform="translate(-15.52 -6.02)"/><path d="M304.11,264.52a32.9,32.9,0,0,0,13,1.92c1.92-.1,1.93-3.1,0-3a30.72,30.72,0,0,1-12.15-1.81c-1.82-.66-2.6,2.24-.8,2.89Z" transform="translate(-15.52 -6.02)"/><path d="M318.07,278.19a42.16,42.16,0,0,0,13,.77c1.9-.19,1.92-3.19,0-3a39.54,39.54,0,0,1-12.18-.66c-1.88-.4-2.69,2.49-.8,2.89Z" transform="translate(-15.52 -6.02)"/><path class="cls-1" d="M21.23,55.43c15.95-2,31.24-6.57,46.71-10.73S99,36.64,114.69,33.16A728.93,728.93,0,0,1,210,18l-1.6-11.79C161.55,23,113.9,38.54,69.44,61.09c-6.43,3.26-1.68,12.12,4.62,11q97.31-17.75,195.72-28.41,27.84-3,55.73-5.43c7.63-.67,7.7-12.67,0-12Q225.87,34.92,127,50.83,98.9,55.36,70.88,60.48l4.62,11C119,49.37,165.72,34.2,211.59,17.83,217.52,15.72,217.18,5.43,210,6a746.49,746.49,0,0,0-94.73,14.71C99.58,24.18,84,28,68.47,32.13S37.3,41.45,21.23,43.43c-7.57.93-7.66,12.95,0,12Z" transform="translate(-15.52 -6.02)"/><path class="cls-2" d="M366.67,335.84c-15.34,2.22-30,7.15-44.88,11.48-15.41,4.5-30.9,8.72-46.5,12.54A729.14,729.14,0,0,1,180.35,377l1.6,11.79c46.47-17.71,93.8-34.27,137.75-57.76,6.26-3.34,1.79-12.28-4.62-11Q218.18,339.93,120,352.74q-27.77,3.6-55.6,6.62c-7.59.83-7.68,12.84,0,12q99.44-10.84,197.92-28.84,28-5.14,55.93-10.86l-4.62-11c-43.05,23-89.38,39.2-134.89,56.56-5.77,2.2-5.68,12.57,1.6,11.79a749.19,749.19,0,0,0,96.27-17.16c15.6-3.79,31.1-8,46.52-12.46s30.76-9.71,46.73-12c7.61-1.1,4.38-12.67-3.19-11.57Z" transform="translate(-15.52 -6.02)"/></svg>